# xmcd
#
# Track frame offsets:
#	150
#	12227
#	30310
#	47912
#	61887
#	76937
#	89197
#	101565
#	119202
#	134700
#
# Disc length: 1975 seconds
#
# Revision: 1
# Processed by: cddbd v1.4PL0 Copyright (c) Steve Scherf et al.
# Submitted via: audiograbber 1.81.02
#
DISCID=8a07b50a
DTITLE=C.B. Sutton and the Outcast Band - Erath's Best Kept Secret
DYEAR=2001
DGENRE=Country
TTITLE0=Eleven Roses
TTITLE1=One Sided Conversation
TTITLE2=Having Some Hard Times
TTITLE3=There's a Bottle Where She Used to Be
TTITLE4=Perfect Picture of a Fool
TTITLE5=Quite That Good
TTITLE6=Biggest Case of Lonilness
TTITLE7=Empty Glass
TTITLE8=Good Time Charlie
TTITLE9=Goodnight Irene
EXTD=
EXTT0=
EXTT1=
EXTT2=
EXTT3=
EXTT4=
EXTT5=
EXTT6=
EXTT7=
EXTT8=
EXTT9=
PLAYORDER=
